<?xml version="1.0" encoding="UTF-8" standalone="no"?>
<!DOCTYPE svg PUBLIC "-//W3C//DTD SVG 1.1//EN" "http://www.w3.org/Graphics/SVG/1.1/DTD/svg11.dtd">
<svg width="100%" height="100%" viewBox="0 0 333 230" version="1.1" xmlns="http://www.w3.org/2000/svg" xmlns:xlink="http://www.w3.org/1999/xlink" xml:space="preserve" xmlns:serif="http://www.serif.com/" style="fill-rule:evenodd;clip-rule:evenodd;stroke-linecap:round;stroke-linejoin:round;stroke-miterlimit:1.5;">
    <g transform="matrix(1,0,0,1,-433.013,-270)">
        <g transform="matrix(0.866025,-0.5,1,0.57735,0,0)">
            <rect x="-200" y="606.218" width="180" height="86.603" style="fill:rgb(209,51,91);"/>
        </g>
        <g transform="matrix(0.866025,-0.5,1,0.57735,0,-30)">
            <rect x="-200" y="606.218" width="180" height="86.603" style="fill:rgb(255,153,71);"/>
        </g>
        <g transform="matrix(0.866025,-0.5,1,0.57735,0,-60)">
            <rect x="-200" y="606.218" width="180" height="86.603" style="fill:rgb(3,189,91);"/>
        </g>
        <g transform="matrix(0.866025,-0.5,1,0.57735,0,-90)">
            <rect x="-200" y="606.218" width="180" height="86.603" style="fill:rgb(0,129,213);"/>
        </g>
        <g transform="matrix(1,0,0,1,-17.3205,-1.9762e-14)">
            <path d="M692.82,320L753.442,295" style="fill:none;stroke:black;stroke-width:1px;"/>
        </g>
        <g transform="matrix(1,0,0,1,-17.3205,30)">
            <path d="M692.82,320L753.442,295" style="fill:none;stroke:black;stroke-width:1px;"/>
        </g>
        <g transform="matrix(1,0,0,1,-17.3205,60)">
            <path d="M692.82,320L753.442,295" style="fill:none;stroke:black;stroke-width:1px;"/>
        </g>
        <g transform="matrix(1,0,0,1,-17.3205,90)">
            <path d="M692.82,320L753.442,295" style="fill:none;stroke:black;stroke-width:1px;"/>
        </g>
        <g>
            <g transform="matrix(12,0,0,12,738.164,385.363)">
                <path d="M0.02,0L0.02,-0.088L0.387,-0.546C0.413,-0.579 0.438,-0.607 0.461,-0.631L0.062,-0.631L0.062,-0.716L0.574,-0.716L0.574,-0.631L0.172,-0.135L0.129,-0.084L0.586,-0.084L0.586,0L0.02,0Z" style="fill-rule:nonzero;"/>
            </g>
            <g transform="matrix(12,0,0,12,748.829,385.363)">
                <path d="M0.528,-0.421L0.056,-0.421L0.056,-0.503L0.528,-0.503L0.528,-0.421ZM0.528,-0.204L0.056,-0.204L0.056,-0.286L0.528,-0.286L0.528,-0.204Z" style="fill-rule:nonzero;"/>
            </g>
            <g transform="matrix(12,0,0,12,759.17,385.363)">
                <path d="M0.373,0L0.285,0L0.285,-0.56C0.264,-0.54 0.236,-0.52 0.201,-0.5C0.167,-0.479 0.136,-0.464 0.109,-0.454L0.109,-0.539C0.158,-0.562 0.201,-0.59 0.238,-0.623C0.275,-0.656 0.301,-0.688 0.316,-0.719L0.373,-0.719L0.373,0Z" style="fill-rule:nonzero;"/>
            </g>
        </g>
        <g transform="matrix(1,0,0,1,0,-30)">
            <g transform="matrix(12,0,0,12,738.164,385.363)">
                <path d="M0.02,0L0.02,-0.088L0.387,-0.546C0.413,-0.579 0.438,-0.607 0.461,-0.631L0.062,-0.631L0.062,-0.716L0.574,-0.716L0.574,-0.631L0.172,-0.135L0.129,-0.084L0.586,-0.084L0.586,0L0.02,0Z" style="fill-rule:nonzero;"/>
            </g>
            <g transform="matrix(12,0,0,12,748.829,385.363)">
                <path d="M0.528,-0.421L0.056,-0.421L0.056,-0.503L0.528,-0.503L0.528,-0.421ZM0.528,-0.204L0.056,-0.204L0.056,-0.286L0.528,-0.286L0.528,-0.204Z" style="fill-rule:nonzero;"/>
            </g>
            <g transform="matrix(12,0,0,12,759.17,385.363)">
                <path d="M0.503,-0.084L0.503,0L0.03,0C0.03,-0.021 0.033,-0.042 0.041,-0.061C0.053,-0.093 0.072,-0.125 0.098,-0.156C0.125,-0.188 0.163,-0.224 0.213,-0.265C0.291,-0.328 0.344,-0.379 0.371,-0.416C0.398,-0.454 0.412,-0.489 0.412,-0.522C0.412,-0.557 0.4,-0.586 0.375,-0.61C0.35,-0.634 0.317,-0.646 0.277,-0.646C0.235,-0.646 0.201,-0.633 0.176,-0.608C0.15,-0.583 0.138,-0.547 0.137,-0.502L0.047,-0.512C0.053,-0.579 0.076,-0.63 0.117,-0.666C0.157,-0.701 0.211,-0.719 0.279,-0.719C0.348,-0.719 0.402,-0.7 0.442,-0.662C0.482,-0.624 0.502,-0.576 0.502,-0.52C0.502,-0.491 0.497,-0.463 0.485,-0.436C0.473,-0.408 0.454,-0.379 0.427,-0.348C0.399,-0.318 0.354,-0.276 0.291,-0.222C0.238,-0.178 0.204,-0.148 0.189,-0.132C0.174,-0.116 0.162,-0.1 0.152,-0.084L0.503,-0.084Z" style="fill-rule:nonzero;"/>
            </g>
        </g>
        <g transform="matrix(1,0,0,1,0,-60)">
            <g transform="matrix(12,0,0,12,738.164,385.363)">
                <path d="M0.02,0L0.02,-0.088L0.387,-0.546C0.413,-0.579 0.438,-0.607 0.461,-0.631L0.062,-0.631L0.062,-0.716L0.574,-0.716L0.574,-0.631L0.172,-0.135L0.129,-0.084L0.586,-0.084L0.586,0L0.02,0Z" style="fill-rule:nonzero;"/>
            </g>
            <g transform="matrix(12,0,0,12,748.829,385.363)">
                <path d="M0.528,-0.421L0.056,-0.421L0.056,-0.503L0.528,-0.503L0.528,-0.421ZM0.528,-0.204L0.056,-0.204L0.056,-0.286L0.528,-0.286L0.528,-0.204Z" style="fill-rule:nonzero;"/>
            </g>
            <g transform="matrix(12,0,0,12,759.17,385.363)">
                <path d="M0.042,-0.189L0.13,-0.201C0.14,-0.151 0.157,-0.115 0.181,-0.093C0.206,-0.071 0.235,-0.06 0.27,-0.06C0.311,-0.06 0.346,-0.074 0.375,-0.103C0.403,-0.132 0.417,-0.167 0.417,-0.209C0.417,-0.25 0.404,-0.283 0.378,-0.309C0.352,-0.336 0.318,-0.349 0.277,-0.349C0.261,-0.349 0.24,-0.345 0.215,-0.339L0.225,-0.416C0.231,-0.415 0.236,-0.415 0.239,-0.415C0.277,-0.415 0.31,-0.425 0.34,-0.444C0.37,-0.464 0.385,-0.494 0.385,-0.535C0.385,-0.567 0.374,-0.594 0.353,-0.615C0.331,-0.636 0.303,-0.646 0.268,-0.646C0.234,-0.646 0.205,-0.636 0.183,-0.614C0.16,-0.593 0.145,-0.561 0.139,-0.518L0.051,-0.533C0.062,-0.592 0.086,-0.638 0.124,-0.67C0.162,-0.703 0.209,-0.719 0.266,-0.719C0.305,-0.719 0.341,-0.71 0.374,-0.694C0.407,-0.677 0.432,-0.654 0.449,-0.625C0.467,-0.596 0.476,-0.565 0.476,-0.533C0.476,-0.502 0.467,-0.474 0.451,-0.448C0.434,-0.423 0.41,-0.403 0.377,-0.388C0.419,-0.378 0.452,-0.358 0.476,-0.327C0.499,-0.296 0.511,-0.258 0.511,-0.211C0.511,-0.149 0.488,-0.096 0.442,-0.052C0.397,-0.009 0.339,0.013 0.27,0.013C0.207,0.013 0.155,-0.006 0.113,-0.043C0.072,-0.081 0.048,-0.129 0.042,-0.189Z" style="fill-rule:nonzero;"/>
            </g>
        </g>
        <g transform="matrix(1,0,0,1,0,-90)">
            <g transform="matrix(12,0,0,12,738.164,385.363)">
                <path d="M0.02,0L0.02,-0.088L0.387,-0.546C0.413,-0.579 0.438,-0.607 0.461,-0.631L0.062,-0.631L0.062,-0.716L0.574,-0.716L0.574,-0.631L0.172,-0.135L0.129,-0.084L0.586,-0.084L0.586,0L0.02,0Z" style="fill-rule:nonzero;"/>
            </g>
            <g transform="matrix(12,0,0,12,748.829,385.363)">
                <path d="M0.528,-0.421L0.056,-0.421L0.056,-0.503L0.528,-0.503L0.528,-0.421ZM0.528,-0.204L0.056,-0.204L0.056,-0.286L0.528,-0.286L0.528,-0.204Z" style="fill-rule:nonzero;"/>
            </g>
            <g transform="matrix(12,0,0,12,759.17,385.363)">
                <path d="M0.323,0L0.323,-0.171L0.013,-0.171L0.013,-0.252L0.339,-0.716L0.411,-0.716L0.411,-0.252L0.508,-0.252L0.508,-0.171L0.411,-0.171L0.411,0L0.323,0ZM0.323,-0.252L0.323,-0.575L0.099,-0.252L0.323,-0.252Z" style="fill-rule:nonzero;"/>
            </g>
        </g>
    </g>
</svg>
